<svg width="48" height="48" viewBox="0 0 48 48" fill="none" xmlns="http://www.w3.org/2000/svg">
<path d="M24 25.5C17.66 25.5 12.5 20.34 12.5 14C12.5 7.66 17.66 2.5 24 2.5C30.34 2.5 35.5 7.66 35.5 14C35.5 20.34 30.34 25.5 24 25.5ZM24 5.5C19.32 5.5 15.5 9.32 15.5 14C15.5 18.68 19.32 22.5 24 22.5C28.68 22.5 32.5 18.68 32.5 14C32.5 9.32 28.68 5.5 24 5.5Z" fill="#30BB7E"/>
<path d="M6.82031 45.5C6.00031 45.5 5.32031 44.82 5.32031 44C5.32031 35.46 13.7003 28.5 24.0003 28.5C26.0203 28.5 28.0003 28.76 29.9203 29.3C30.7203 29.52 31.1803 30.34 30.9603 31.14C30.7403 31.94 29.9203 32.4001 29.1203 32.1801C27.4803 31.7201 25.7603 31.5 24.0003 31.5C15.3603 31.5 8.32031 37.1 8.32031 44C8.32031 44.82 7.64031 45.5 6.82031 45.5Z" fill="#30BB7E"/>
<path d="M36 45.5C32.68 45.5 29.56 43.74 27.88 40.88C26.98 39.44 26.5 37.74 26.5 36C26.5 33.08 27.8 30.38 30.06 28.58C31.74 27.24 33.86 26.5 36 26.5C41.24 26.5 45.5 30.76 45.5 36C45.5 37.74 45.02 39.44 44.12 40.9C43.62 41.74 42.98 42.5 42.22 43.14C40.56 44.66 38.34 45.5 36 45.5ZM36 29.5C34.52 29.5 33.12 29.9999 31.94 30.9399C30.4 32.1599 29.5 34.02 29.5 36C29.5 37.18 29.82 38.34 30.44 39.34C31.6 41.3 33.74 42.5 36 42.5C37.58 42.5 39.1 41.92 40.26 40.88C40.78 40.44 41.22 39.92 41.54 39.36C42.18 38.34 42.5 37.18 42.5 36C42.5 32.42 39.58 29.5 36 29.5Z" fill="#30BB7E"/>
<path d="M34.8597 39.4801C34.4797 39.4801 34.0997 39.3402 33.7997 39.0402L31.8198 37.0602C31.2398 36.4802 31.2398 35.5201 31.8198 34.9401C32.3998 34.3601 33.3598 34.3601 33.9398 34.9401L34.8998 35.9002L38.0997 32.9401C38.6997 32.3801 39.6597 32.4202 40.2197 33.0202C40.7797 33.6202 40.7398 34.5801 40.1398 35.1401L35.8798 39.0801C35.5798 39.3401 35.2197 39.4801 34.8597 39.4801Z" fill="#30BB7E"/>
</svg>
